<?xml version="1.0" standalone="no"?>
<!-- Generator: Gravit.io -->
<svg xmlns="http://www.w3.org/2000/svg" xmlns:xlink="http://www.w3.org/1999/xlink" viewBox="0 0 80 960" width="80" height="960" stroke-linejoin="round" stroke-linecap="round" fill="none" stroke-width="5" stroke="#000">
  <path d="M20 900h40v40H20z"/>
  <path d="M50 910L30 930"/>
  <path d="M40 820L20 860L60 860L40 820Z"/>
  <circle cx="40" cy="750" r="20"/>
  <path d="M30 746L50 746"/>
  <path d="M30 754L40 754"/>
  <path d="M35 710L45 710L45 680L35 680L35 710Z"/>
  <circle cx="40" cy="660" r="10"/>
  <path d="M70 630L70 580L10 580L10 620L60 620L70 630Z"/>
  <path d="M40 590L40 600"/>
  <circle cx="40" cy="504.99985005416283" r="10"/>
  <path d="M27.679 543.66C22.9 546.42 16.779 544.78 14.019 540C11.26 535.22 12.9 529.099 17.679 526.34C22.459 523.58 28.58 525.22 31.34 530C34.099 534.78 32.459 540.901 27.679 543.66Z"/>
  <path d="M62.321 526.34C67.1 529.099 68.74 535.22 65.981 540C63.221 544.78 57.1 546.42 52.321 543.66C47.541 540.901 45.901 534.78 48.66 530C51.42 525.22 57.541 523.58 62.321 526.34Z"/>
  <circle cx="25" cy="425" r="15"/>
  <path d="M10 470Q10 457.805 10 450Q10 440.031 20 440L30 440Q40 440.031 40 450Q40 457.805 40 470"/>
  <path d="M50 440L60 440Q70 440.031 70 450Q70 457.805 70 470"/>
  <path d="M44.395 414.395C47.111 411.68 50.861 410 55 410C63.279 410 70 416.721 70 425C70 433.279 63.279 440 55 440C50.861 440 47.111 438.32 44.395 435.605"/>
  <path d="M30 340L30 380"/>
  <path d="M40 340L40 380"/>
  <path d="M70 340L70 380"/>
  <circle cx="40" cy="280" r="30"/>
  <ellipse cx="40" cy="280" rx="15" ry="30"/>
  <path d="M40 250L40 310"/>
  <path d="M15 180h40v30H15z"/>
  <path d="M65 190L65 220L25 220"/>
  <path d="M20 90L60 90L60 130Q50 130.25 50 140Q50 143.903 50 150L30 150Q30 143.903 30 140Q30 130.25 20 130L20 90Z"/>
  <path d="M20 120L60 120"/>
  <path d="M30 90L30 110"/>
  <path d="M40 90L40 100"/>
  <path d="M70 40C70 56.557 56.557 70 40 70C23.443 70 10 56.557 10 40C10 23.443 23.443 10 40 10"/>
  <path d="M40 50L40 40L60 40"/>
  <g fill="#000">
    <path d="M10 340h10v40H10z"/>
    <path d="M50 340h10v40H50z"/>
    <g stroke-width="0">
      <circle cx="40" cy="20" r="2.5"/>
      <path d="M27.835 23.929C27.145 22.735 27.555 21.204 28.75 20.514C29.945 19.824 31.475 20.235 32.165 21.429C32.855 22.624 32.445 24.155 31.25 24.845C30.055 25.534 28.525 25.124 27.835 23.929Z"/>
      <path d="M20 42.5C18.62 42.5 17.5 41.38 17.5 40C17.5 38.62 18.62 37.5 20 37.5C21.38 37.5 22.5 38.62 22.5 40C22.5 41.38 21.38 42.5 20 42.5Z"/>
      <path d="M21.429 32.165C20.235 31.475 19.824 29.945 20.514 28.75C21.204 27.555 22.735 27.145 23.929 27.835C25.124 28.525 25.534 30.055 24.845 31.25C24.155 32.445 22.624 32.855 21.429 32.165Z"/>
      <circle cx="40" cy="610" r="2.5"/>
    </g>
  </g>
  <g stroke-linecap="square">
    <path d="M35 535L45 535"/>
    <path d="M51.161 524.33L46.161 515.669"/>
    <path d="M33.839 515.67L28.839 524.33"/>
    <path d="M30 770L30 790L40 780L50 790L50 770"/>
    <path d="M40 770L40 780"/>
  </g>
  <g stroke-linecap="butt">
    <path d="M10 270L70 270"/>
    <path d="M10 290L70 290"/>
  </g>
</svg>